<svg width="629" height="473" viewBox="0 0 629 473" fill="none" xmlns="http://www.w3.org/2000/svg">
<g clip-path="url(#clip0)">
<path opacity="0.1" d="M613.705 274.195C613.705 274.554 613.705 274.914 613.705 275.267C613.637 281.464 613.238 287.644 612.509 293.809C612.512 293.847 612.512 293.884 612.509 293.921C612.451 294.434 612.387 294.94 612.323 295.453C612.214 296.319 612.099 297.179 611.971 298.044C610.479 308.584 608.011 318.987 604.592 329.139C600.013 342.857 593.539 355.978 585.33 368.179C582.804 371.909 580.114 375.52 577.26 379.011C575.737 380.861 574.182 382.669 572.576 384.448C571.449 385.692 570.302 386.918 569.133 388.123L568.403 388.865C562.253 395.081 555.623 400.88 548.565 406.218C537.046 415.006 524.643 422.651 512.043 429.743C511.326 430.15 510.603 430.55 509.88 430.921C509.829 430.955 509.776 430.985 509.72 431.01C492.595 440.54 474.836 449.14 456.54 456.025C436.51 463.582 415.826 469.078 394.606 471.481C365.027 474.827 335.09 472.105 305.691 467.429C281.24 463.562 257.086 458.25 233.377 451.525L229.473 450.4C227.451 449.807 225.431 449.202 223.413 448.586C211.224 444.875 199.172 440.752 187.256 436.217C157.328 424.871 128.739 410.742 101.931 394.049C98.5182 391.936 95.1542 389.776 91.8392 387.569C87.206 384.499 82.6282 381.338 78.1059 378.086L75.3157 376.095C63.4808 367.566 52.3926 358.193 42.1535 348.064C28.3818 334.269 16.6132 318.707 8.87617 300.942C7.656 298.151 6.53823 295.306 5.52284 292.408L5.42685 292.119C4.91489 290.646 4.44132 289.174 4.00616 287.642C3.36621 285.451 2.80519 283.233 2.32309 280.987C2.2207 280.557 2.13111 280.127 2.04791 279.691C0.518361 272.132 -0.157185 264.447 0.032071 256.76C0.192126 250.025 1.04927 243.319 2.59187 236.733C4.17076 229.907 6.60387 223.271 9.8425 216.96C12.7692 211.285 16.4983 205.991 20.9328 201.216C24.0489 197.877 27.5533 194.863 31.3832 192.227C38.3266 187.468 46.0252 184.152 54.0054 181.531C57.7555 180.294 61.5568 179.21 65.3773 178.203C68.0843 177.484 70.8041 176.801 73.5111 176.129L81.4976 174.144C86.6172 172.86 91.7368 171.541 96.7796 170.115C110.526 166.251 123.997 161.575 136.456 154.601C138.428 153.499 140.437 152.292 142.446 150.996C145.006 149.358 147.528 147.58 150.023 145.659C152.545 143.716 155.015 141.636 157.37 139.433C157.735 139.092 158.093 138.75 158.452 138.403C160.371 136.541 162.234 134.592 163.962 132.565C164.806 131.576 165.625 130.569 166.406 129.544C167.488 128.124 168.512 126.681 169.459 125.197C174.207 117.775 177.138 109.588 176.793 100.959C176.742 99.537 176.603 98.119 176.377 96.7119C175.545 91.5108 174.745 86.4335 174.156 81.4681C171.686 60.929 172.729 42.3042 189.476 24.8044C210.3 3.05196 242.983 -1.38335 272.734 0.354254C358.749 5.36092 437.054 50.5622 505.867 104.375C511.819 109.024 517.698 113.736 523.504 118.511C524.968 119.713 526.433 120.923 527.901 122.14C538.78 131.158 549.493 140.511 559.469 150.531C560.276 151.343 561.082 152.156 561.876 152.975C562.362 153.482 562.855 153.982 563.335 154.495C566.445 157.734 569.463 161.052 572.39 164.449C580.23 173.466 587.154 183.128 593.073 193.311C602.137 209.292 608.274 226.541 611.235 244.361C612.349 250.833 613.081 257.355 613.43 263.899C613.539 265.825 613.609 267.757 613.648 269.683C613.648 270.302 613.648 270.914 613.648 271.533C613.712 272.428 613.712 273.3 613.705 274.195Z" fill="#22CEF9"/>
<path d="M252.127 264.316L241.888 432.063L252.127 432.187L260.447 261.96L252.127 264.316Z" fill="#3F3D56"/>
<path d="M214.37 349.306H87.6603V374.634H214.37V349.306Z" fill="#22B8F9"/>
<path d="M222.69 371.683V387.586H91.8008C87.1675 384.516 82.5897 381.354 78.0674 378.103V371.683H222.69Z" fill="#3F3D56"/>
<path d="M248.825 335.488C248.467 337.013 248 338.521 247.507 340.023C246.054 344.364 244.307 348.646 243.968 353.158C243.514 359.119 245.248 366.052 240.768 370.381C239.616 371.5 238.112 372.337 237.082 373.532C236.923 373.72 236.778 373.917 236.647 374.121C235.725 375.523 235.617 377.231 235.604 378.834C235.615 382.251 235.856 385.664 236.327 389.053C237.844 400.716 240.839 412.402 236.903 423.41C236.19 425.32 235.359 427.19 234.413 429.012C232.494 432.9 230.401 436.734 229.774 440.946C229.313 444.067 229.454 447.283 229.428 450.458C227.406 449.865 225.386 449.261 223.368 448.644C211.179 444.933 199.127 440.81 187.211 436.275C187.243 436.116 187.275 435.951 187.3 435.792C188.216 430.549 186.961 425.189 185.438 420.077C182.238 409.245 177.708 398.519 175.026 387.61C173.946 383.349 173.238 379.016 172.908 374.651C172.831 373.674 172.786 372.69 172.78 371.706C172.748 370.422 172.78 369.138 172.838 367.842C172.972 365.257 173.094 362.188 170.847 360.615C169.612 359.761 167.98 359.614 166.54 359.095C163.763 358.1 161.862 355.791 159.661 353.942C158.611 353.004 157.329 352.316 155.925 351.936C154.521 351.556 153.038 351.497 151.604 351.762C137.218 354.796 126.646 366.028 113.258 371.706C112.74 371.93 112.222 372.142 111.697 372.343C109.965 372.926 108.317 373.702 106.788 374.651C105.714 375.338 104.935 376.348 104.587 377.508C104.248 378.757 104.542 380.065 104.709 381.349C104.978 383.436 104.881 385.55 104.421 387.61C104.247 388.408 104.018 389.195 103.736 389.966C103.224 391.362 102.539 392.728 101.886 394.089C98.4733 391.976 95.1093 389.817 91.7944 387.61C87.1611 384.539 82.5833 381.378 78.061 378.127L75.3157 376.095C63.4807 367.565 52.3925 358.192 42.1535 348.063C43.5166 344.529 45.4876 341.242 46.4347 337.62C46.9723 335.541 47.1707 333.379 47.913 331.359C48.7691 329.264 49.9597 327.299 51.4455 325.527C56.8873 318.542 63.5321 312.422 71.1176 307.409C79.0466 302.179 88.2042 297.985 95.3397 292.047C98.2354 289.714 100.732 286.992 102.744 283.972C102.865 283.789 102.981 283.595 103.083 283.383C103.64 282.317 104.026 281.182 104.229 280.014C104.741 277.375 104.664 274.477 104.92 271.944C113.612 273.329 122.474 273.575 131.241 272.675C141.448 271.62 151.431 269.011 161.638 267.998C162.406 267.915 163.181 267.851 163.955 267.792C167.225 267.55 170.502 267.497 173.785 267.532C176.53 267.532 179.275 267.644 182.021 267.727L212.246 268.669C215.593 268.775 219.01 268.893 222.126 270.018C225.825 271.355 228.788 274.018 231.163 276.945C231.463 277.322 231.764 277.699 232.046 278.088C233.999 280.711 235.566 283.561 236.705 286.564C236.826 286.87 236.941 287.153 237.05 287.488C237.338 288.307 237.588 289.132 237.812 289.968C237.984 290.622 238.138 291.276 238.279 291.936C238.983 295.199 239.399 298.533 240.512 301.684C240.589 301.913 240.672 302.143 240.762 302.367C242.099 305.819 244.32 308.911 245.997 312.227C247.205 314.628 248.128 317.142 248.748 319.725C250.002 324.914 250.028 330.289 248.825 335.488Z" fill="#35323E"/>
<path d="M156.954 124.695C154.253 122.716 150.337 124.165 147.176 125.443C144.525 126.521 141.797 127.428 139.01 128.159C138.44 128.361 137.821 128.42 137.218 128.33C135.938 128.047 135.401 126.651 134.447 125.803C132.79 124.336 130.076 124.684 127.939 125.479C125.801 126.274 123.689 127.422 121.398 127.246C118.954 127.069 116.829 125.408 114.359 125.355C110.007 125.261 106.353 130.197 102.238 128.889C99.7297 128.094 97.7587 125.09 95.2885 125.944C93.3686 126.616 93.1958 129.06 92.0375 130.656C90.6744 132.517 88.0186 133.042 85.7468 133.866C78.5858 136.47 73.8438 143.815 74.7781 150.848C75.2965 154.729 77.3379 158.287 78.6882 161.992C82.6943 172.765 81.3184 184.917 86.3676 195.307C87.0075 194.753 87.3659 194.547 87.9867 193.999C86.3902 197.047 86.0822 200.532 87.1227 203.777C87.6539 205.409 88.5178 206.928 89.1706 208.525C89.8486 210.315 90.3959 212.145 90.8088 214.002L96.3764 236.609C98.5522 245.444 100.734 254.279 101.112 263.327C101.347 269.21 100.858 275.098 99.6529 280.88C109.739 279.342 118.967 275.225 129.187 275.278C132.937 275.278 136.655 275.867 140.373 276.338C151.213 277.734 162.148 278.417 173.094 278.382C174.796 278.471 176.501 278.251 178.111 277.734C179.519 277.181 180.671 276.197 182.002 275.484C184.606 274.071 187.761 273.717 190.763 273.717C204.451 273.487 217.64 278.099 231.239 279.725C236.609 269.352 236.929 256.924 232.807 246.08C231.585 242.858 229.94 239.719 229.454 236.332C229.259 234.25 229.207 232.159 229.3 230.071C229.279 224.725 228.233 219.425 226.209 214.415C225.416 212.453 224.462 210.456 224.545 208.365C224.629 206.274 225.749 204.325 226.849 202.475C229.083 198.706 231.329 194.9 234.484 191.72C237.716 188.433 241.76 185.93 245.76 183.474L255.634 177.371C254.284 169.52 252.543 161.25 248.928 154.028C245.312 146.807 239.904 140.169 232.59 135.946C230.124 134.58 227.543 133.398 224.872 132.411C221.135 130.962 217.244 129.684 213.193 129.466C208.585 129.225 204.048 130.362 199.498 131.069C185.176 133.289 168.32 133.018 156.954 124.695Z" fill="#22B8F9"/>
<path d="M264.926 260.947L260.229 266.407L251.372 276.698L241.133 288.59L238.272 291.912H232.724L95.3333 292.059L9.29207 292.148H5.45237C4.94041 290.675 4.46685 289.202 4.03168 287.671C3.39173 285.48 2.83071 283.261 2.34862 281.015C2.24623 280.585 2.15663 280.155 2.07344 279.719L33.2902 260.935L45.0268 260.877L80.928 260.688L100.978 260.582H104.638H106.936L120.298 260.517L222.139 259.981L227.348 259.952H229.607L235.591 259.922L257.855 259.805L262.13 258.308L262.443 258.615L264.926 260.947Z" fill="#3F3D56"/>
<path d="M263.006 258.002L262.475 258.591L258.981 262.379L251.788 270.195L236.705 286.564L103.083 283.424L2.32302 281.068C2.22063 280.638 2.13103 280.208 2.04784 279.772C0.518288 272.213 -0.157258 264.529 0.0319985 256.842L11.2055 251.576L13.7653 250.363L33.6869 240.938L51.1704 232.692L96.7732 238.146L106.872 239.354L111.441 239.896L118.128 240.697L118.691 240.767L223.56 253.284L235.149 254.668L241.952 255.481L262.917 257.99L263.006 258.002Z" fill="#504F60"/>
<path d="M241.248 286.275L241.139 288.59L240.499 301.66L237.057 373.521L236.327 389.053L234.407 429.012L233.326 451.583L229.422 450.458C227.4 449.865 225.38 449.261 223.362 448.644L232.724 291.965L232.922 288.678L237.044 287.5L241.248 286.275Z" fill="#3F3D56"/>
<path d="M9.58644 286.104L9.29846 292.153L8.87609 300.989C7.65592 298.197 6.53815 295.352 5.52276 292.454L5.42677 292.165C4.91481 290.693 4.44124 289.22 4.00608 287.689L9.58644 286.104Z" fill="#3F3D56"/>
<path d="M176.933 197.045C193.191 197.045 206.371 180.694 206.371 160.525C206.371 140.356 193.191 124.006 176.933 124.006C160.675 124.006 147.496 140.356 147.496 160.525C147.496 180.694 160.675 197.045 176.933 197.045Z" fill="#A1616A"/>
<path opacity="0.1" d="M176.933 197.045C193.191 197.045 206.371 180.694 206.371 160.525C206.371 140.356 193.191 124.006 176.933 124.006C160.675 124.006 147.496 140.356 147.496 160.525C147.496 180.694 160.675 197.045 176.933 197.045Z" fill="black"/>
<path d="M181.093 176.134C203.713 176.134 222.05 159.257 222.05 138.437C222.05 117.618 203.713 100.74 181.093 100.74C158.473 100.74 140.136 117.618 140.136 138.437C140.136 159.257 158.473 176.134 181.093 176.134Z" fill="#A1616A"/>
<path d="M181.906 80.3363C179.405 80.5198 176.922 80.8682 174.476 81.3789C168 82.8279 162.4 86.0439 156.948 89.201C154.503 90.6206 151.988 92.099 150.471 94.1841C147.745 97.9244 148.801 102.684 147.272 106.836C146.478 108.969 145.019 110.883 143.784 112.868C140.386 118.31 138.607 124.289 136.86 130.209C136.501 131.434 136.399 133.095 137.852 133.566C138.688 133.726 139.558 133.635 140.335 133.307C144.923 131.911 150.753 131.51 154.157 134.343C157.562 137.177 157.274 142.201 161.325 144.357C165.965 146.848 173.209 143.838 177.42 146.778C179.224 148.038 179.877 150.059 181.355 151.578C184.798 155.112 191.422 154.941 196.932 154.229C200.093 153.816 203.971 153.54 205.891 155.584C206.812 156.549 207.075 157.875 208.144 158.747C210.063 160.325 213.577 159.524 215.452 157.904C217.327 156.284 218.223 154.093 219.784 152.273C222.824 148.739 228.168 146.813 231.303 143.32C233.927 140.375 234.721 136.688 235.437 133.13L238.106 119.942C239.188 114.594 240.173 108.751 236.903 104.038C235.738 102.342 234.068 100.881 233.063 99.126C232.391 97.948 232.014 96.7051 231.233 95.5919C230.307 94.4322 229.201 93.4041 227.95 92.5408L221.634 87.7285C219.474 85.9887 217.165 84.4128 214.729 83.0163C205.712 78.1805 192.209 79.4528 181.906 80.3363Z" fill="#464353"/>
<path d="M47.0043 177.442C45.4876 178.926 44.0861 180.528 42.4606 181.919C41.0307 183.089 39.5355 184.19 37.981 185.217C35.4724 186.945 33.0193 188.733 30.6216 190.583C28.1201 192.403 25.8566 194.485 23.8765 196.785C20.4592 201.009 18.8401 206.263 15.6404 210.627C12.8118 214.497 8.8249 217.554 5.95152 221.395C4.69097 223.009 3.75467 224.819 3.18694 226.737C2.76317 228.594 2.57207 230.489 2.61739 232.386C2.55979 235.496 2.5086 238.641 3.19974 241.686C3.89089 244.732 5.40757 247.724 8.00576 249.721C10.4184 251.576 13.5349 252.43 16.5875 253.137C18.1618 253.496 19.864 253.832 21.3615 253.261C22.4573 252.751 23.4084 252.013 24.1389 251.105L31.9271 242.858C37.1363 237.322 42.5502 231.667 49.6985 228.427C51.9383 227.42 54.2997 226.66 56.5459 225.683C66.0684 221.459 72.8007 212.813 75.4117 203.388C76.0516 201.085 76.4612 198.735 76.8771 196.385L78.0035 189.941C78.0899 189.618 78.0899 189.28 78.0035 188.957C77.8271 188.594 77.5432 188.284 77.1843 188.062C71.7595 184.03 66.6804 179.619 61.9919 174.868C60.8784 173.737 59.8353 172.188 58.549 171.24C56.9363 170.062 57.0579 170.15 55.1188 171.24C52.136 172.978 49.4087 175.063 47.0043 177.442Z" fill="#A1616A"/>
<path d="M100.28 220.323C100.215 220.186 100.121 220.062 100.003 219.96C99.8855 219.857 99.7464 219.778 99.5943 219.726C99.4422 219.674 99.2803 219.652 99.1184 219.659C98.9565 219.666 98.7978 219.703 98.6519 219.769C98.5061 219.834 98.376 219.925 98.2696 220.038C98.1631 220.151 98.0825 220.282 98.0326 220.424C97.9826 220.566 97.9643 220.715 97.9788 220.864C97.9934 221.013 98.0404 221.157 98.1171 221.289L97.4771 221.577L116.56 257.578L120.01 256.029L100.926 220.005L100.28 220.323Z" fill="#3F3D56"/>
<path opacity="0.04" d="M47.0043 177.442C45.4876 178.926 44.0861 180.528 42.4606 181.919C41.0307 183.089 39.5355 184.19 37.981 185.217C35.4724 186.945 33.0193 188.733 30.6216 190.583C28.1201 192.403 25.8566 194.485 23.8765 196.785C20.4592 201.009 18.8401 206.263 15.6404 210.627C12.8118 214.497 8.8249 217.554 5.95152 221.395C4.69097 223.009 3.75467 224.819 3.18694 226.737C2.76317 228.594 2.57207 230.489 2.61739 232.386C2.55979 235.496 2.5086 238.641 3.19974 241.686C3.89089 244.732 5.40757 247.724 8.00576 249.721C10.4184 251.576 13.5349 252.43 16.5875 253.137C18.1618 253.496 19.864 253.832 21.3615 253.261C22.4573 252.751 23.4084 252.013 24.1389 251.105L31.9271 242.858C37.1363 237.322 42.5502 231.667 49.6985 228.427C51.9383 227.42 54.2997 226.66 56.5459 225.683C66.0684 221.459 72.8007 212.813 75.4117 203.388C76.0516 201.085 76.4612 198.735 76.8771 196.385L78.0035 189.941C78.0899 189.618 78.0899 189.28 78.0035 188.957C77.8271 188.594 77.5432 188.284 77.1843 188.062C71.7595 184.03 66.6804 179.619 61.9919 174.868C60.8784 173.737 59.8353 172.188 58.549 171.24C56.9363 170.062 57.0579 170.15 55.1188 171.24C52.136 172.978 49.4087 175.063 47.0043 177.442Z" fill="black"/>
<path d="M267.621 243.789C267.557 247.547 267.397 251.417 265.701 254.845C264.971 256.329 263.838 257.79 262.143 258.279C261.116 258.497 260.054 258.533 259.013 258.385C246.458 257.369 233.807 258.293 221.583 261.118C224.846 255.11 222.971 247.906 223.874 241.239C224.123 239.419 224.578 237.628 224.75 235.802C225.39 229.323 222.376 223.032 220.994 216.635C219.794 211.098 219.794 205.397 220.994 199.86C221.229 198.435 221.762 197.065 222.562 195.825C223.499 194.619 224.731 193.633 226.158 192.945C231.342 190.23 237.453 189.917 243.277 190.277C247.2 190.518 255.065 190.177 258.335 192.397C261.912 194.83 263.045 203 264.011 206.775C265.458 212.566 266.442 218.446 266.955 224.369C267.582 230.825 267.716 237.31 267.621 243.789Z" fill="#A1616A"/>
<path d="M38.3842 256.83L61.4223 270.966L165.094 267.432L96.6196 256.83H38.3842Z" fill="white"/>
<path d="M68.7626 144.51C64.9805 147.579 61.7743 151.195 58.1906 154.464C53.2758 158.953 47.689 162.77 42.1279 166.569C44.1218 167.082 45.9368 168.062 47.3952 169.415C48.8535 170.768 49.9052 172.446 50.4472 174.285C50.6904 175.151 50.812 176.052 51.0872 176.9C51.7271 178.909 53.135 180.64 54.6453 182.201C61.1344 188.934 70.2153 193.917 74.0422 202.228C74.167 202.632 74.4379 202.986 74.8101 203.229C75.1215 203.356 75.4673 203.393 75.802 203.335C79.2641 203 81.9135 200.431 84.1214 197.934C88.729 192.633 92.7287 186.778 95.0005 180.311C97.2723 173.843 97.6371 166.692 95.1605 160.284C93.9254 157.091 92.0183 154.158 90.1241 151.254C88.4645 148.714 86.8091 146.177 85.1581 143.644C84.2941 142.307 83.1934 139.592 81.4976 138.932C77.8371 137.483 71.1112 142.348 68.7626 144.51Z" fill="#22B8F9"/>
<path d="M257.253 182.578L262.699 194.359C256.771 192.452 250.434 191.872 244.214 192.665C237.993 193.459 232.067 195.604 226.926 198.924C223.822 200.967 220.975 203.536 219.573 206.799C218.881 206.92 218.167 206.858 217.511 206.622C216.855 206.385 216.286 205.983 215.868 205.462C215.049 204.404 214.574 203.154 214.498 201.857C213.993 197.333 215.855 192.898 217.698 188.669C218.556 186.69 219.439 184.669 220.962 183.061C222.485 181.453 224.507 180.393 226.529 179.392C232.981 176.108 239.738 173.36 246.72 171.181C249.663 170.303 252.748 170.321 254.399 172.854C256.313 175.875 255.756 179.362 257.253 182.578Z" fill="#22B8F9"/>
<path d="M38.5186 217.925C39.8817 218.927 41.0784 220.111 42.4798 221.065C43.962 222.012 45.5392 222.827 47.1899 223.497L53.4998 226.289C55.4551 227.225 57.5012 227.99 59.6113 228.575C62.3119 229.24 65.1469 229.305 67.8602 229.924C71.284 230.701 74.4133 232.321 77.7859 233.257C81.1584 234.194 85.1069 234.347 87.9227 232.397C89.6825 231.178 91.0136 229.164 93.1958 228.863C94.6037 228.693 95.9604 229.317 97.2147 229.924L113.636 237.869C115.85 238.941 118.192 240.131 119.351 242.175C120.509 244.219 119.728 247.323 117.29 247.853C116.44 247.943 115.586 247.988 114.73 247.989C113.885 248.083 112.964 248.542 112.849 249.326C112.844 249.812 112.984 250.291 113.252 250.71C113.988 252.265 114.205 254.126 113.348 255.634C112.49 257.142 110.385 258.079 108.702 257.401C108.99 259.681 106.296 261.277 103.896 261.884C97.8419 263.409 91.4232 262.473 85.2349 261.507C82.8031 261.13 80.3329 260.741 78.1186 259.74C77.0563 259.263 76.0708 258.65 74.9957 258.208C72.0455 257.001 68.6922 257.16 65.4668 257.213C50.5496 257.454 35.7604 254.91 21.0927 252.377C18.3729 251.906 15.5764 251.405 13.2534 250.021C8.77371 247.335 7.10984 241.822 7.84578 236.945C8.58172 232.068 11.2695 227.65 13.9125 223.362L17.3362 217.807C17.7838 216.957 18.4102 216.196 19.1793 215.569C24.2157 212.029 34.2053 214.733 38.5186 217.925Z" fill="#A1616A"/>
<path opacity="0.04" d="M38.5186 217.925C39.8817 218.927 41.0784 220.111 42.4798 221.065C43.962 222.012 45.5392 222.827 47.1899 223.497L53.4998 226.289C55.4551 227.225 57.5012 227.99 59.6113 228.575C62.3119 229.24 65.1469 229.305 67.8602 229.924C71.284 230.701 74.4133 232.321 77.7859 233.257C81.1584 234.194 85.1069 234.347 87.9227 232.397C89.6825 231.178 91.0136 229.164 93.1958 228.863C94.6037 228.693 95.9604 229.317 97.2147 229.924L113.636 237.869C115.85 238.941 118.192 240.131 119.351 242.175C120.509 244.219 119.728 247.323 117.29 247.853C116.44 247.943 115.586 247.988 114.73 247.989C113.885 248.083 112.964 248.542 112.849 249.326C112.844 249.812 112.984 250.291 113.252 250.71C113.988 252.265 114.205 254.126 113.348 255.634C112.49 257.142 110.385 258.079 108.702 257.401C108.99 259.681 106.296 261.277 103.896 261.884C97.8419 263.409 91.4232 262.473 85.2349 261.507C82.8031 261.13 80.3329 260.741 78.1186 259.74C77.0563 259.263 76.0708 258.65 74.9957 258.208C72.0455 257.001 68.6922 257.16 65.4668 257.213C50.5496 257.454 35.7604 254.91 21.0927 252.377C18.3729 251.906 15.5764 251.405 13.2534 250.021C8.77371 247.335 7.10984 241.822 7.84578 236.945C8.58172 232.068 11.2695 227.65 13.9125 223.362L17.3362 217.807C17.7838 216.957 18.4102 216.196 19.1793 215.569C24.2157 212.029 34.2053 214.733 38.5186 217.925Z" fill="black"/>
<path d="M233.87 228.104C230.535 229.553 226.709 229.694 223.227 230.807C219.746 231.92 216.789 233.923 213.596 235.555C205.277 239.831 195.677 241.445 186.251 242.982C180.536 243.925 174.732 244.867 168.972 244.643C161.178 244.337 153.69 241.945 146.139 240.143C138.587 238.341 130.531 237.127 123.049 239.154C119.143 240.248 115.572 242.175 112.625 244.777C109.679 247.38 107.44 250.585 106.091 254.132C104.523 258.367 104.305 262.932 104.606 267.397C106.18 268.463 108.382 266.985 109.239 265.365C110.097 263.745 110.564 261.76 112.228 260.818C115.114 261.719 115.818 265.259 118.199 267.008C119.683 268.104 121.667 268.392 123.555 268.64L133.282 269.912C135.625 270.218 138.344 270.425 140.04 268.905C140.866 268.169 141.32 267.138 142.075 266.349C143.624 264.77 146.209 264.499 148.513 264.711C155.706 265.371 162.451 269.665 169.593 268.646C172.05 268.298 174.335 267.332 176.677 266.572C190.558 262.06 205.981 264.805 220.424 262.22C225.934 261.236 231.239 259.492 236.481 257.655C239.328 256.659 242.208 255.617 244.64 253.932C246.944 252.302 248.761 250.16 249.92 247.707C251.08 245.254 251.544 242.57 251.27 239.907C250.734 235.849 248.534 232.132 245.12 229.517C243.994 228.634 242.515 226.943 241.165 226.389C238.586 225.347 236.058 227.155 233.87 228.104Z" fill="#A1616A"/>
<g opacity="0.1">
<path opacity="0.1" d="M215.17 152.856C214.102 151.985 213.839 150.659 212.918 149.693C210.998 147.649 207.12 147.926 203.958 148.339C198.448 149.051 191.799 149.216 188.382 145.688C186.904 144.168 186.251 142.154 184.446 140.887C180.235 137.942 172.991 140.958 168.352 138.467C164.301 136.293 164.563 131.251 161.184 128.453C157.805 125.655 151.95 126.021 147.361 127.417C146.585 127.745 145.715 127.836 144.878 127.676C143.425 127.205 143.528 125.544 143.886 124.318C145.633 118.399 147.412 112.42 150.811 106.978C152.046 104.993 153.505 103.078 154.298 100.946C155.687 97.2117 154.977 92.9884 156.8 89.4543C154.842 90.6324 152.961 91.9164 151.751 93.5774C149.025 97.3177 150.081 102.077 148.551 106.23C147.758 108.362 146.299 110.276 145.064 112.261C141.666 117.704 139.887 123.682 138.14 129.602C137.781 130.827 137.679 132.488 139.131 132.959C139.968 133.119 140.838 133.028 141.614 132.7C146.203 131.304 152.033 130.904 155.437 133.737C158.842 136.57 158.554 141.594 162.605 143.75C167.244 146.242 174.489 143.232 178.7 146.171C180.504 147.431 181.157 149.452 182.635 150.971C186.078 154.506 192.702 154.335 198.212 153.622C201.373 153.21 205.251 152.933 207.171 154.977C208.092 155.943 208.355 157.268 209.424 158.14C211.343 159.718 214.857 158.917 216.732 157.298C217.934 156.145 218.963 154.85 219.791 153.445C218.127 153.911 216.354 153.84 215.17 152.856Z" fill="black"/>
<path opacity="0.1" d="M226.83 146.377C226.418 146.866 226.036 147.375 225.685 147.903C228.142 146.289 230.747 144.781 232.583 142.725C233.06 142.193 233.488 141.626 233.863 141.029C231.31 142.713 228.648 144.263 226.83 146.377Z" fill="black"/>
</g>
<path d="M356.119 263.015L358.039 432.063L366.998 430.885L365.078 263.015H356.119Z" fill="#3F3D56"/>
<path d="M409.875 293.644L411.795 462.692L420.754 461.514L418.834 293.644H409.875Z" fill="#3F3D56"/>
<path d="M577.241 379.04L577.202 375.794V373.862L576.863 344.128L576.332 297.643L576.243 293.632H567.283L567.328 297.496L567.61 322.394L567.731 333.173L567.834 341.902L568 356.993L568.102 365.893V366.835L568.237 378.533L568.352 388.847L569.082 388.105C570.255 386.899 571.402 385.674 572.524 384.429L577.241 379.04Z" fill="#3F3D56"/>
<path d="M399.956 321.033L394.836 328.078L399.956 360.173L443.472 371.135H513.867L556.103 373.485L576.223 360.81L572.742 339.039L557.383 321.033H399.956Z" fill="#22B8F9"/>
<path d="M394.836 328.078L392.276 347.645C392.276 347.645 378.837 386.008 486.989 383.658C595.14 381.307 576.582 373.479 576.582 373.479L575.942 350.779C575.942 350.779 579.711 361.522 524.746 360.067C469.781 358.612 418.514 353.912 418.514 353.912C418.514 353.912 399.316 357.04 394.836 328.078Z" fill="#3F3D56"/>
<path d="M484.941 152.691C478.772 155.277 474.1 160.29 470.971 165.832C467.842 171.375 466.082 177.46 464.347 183.503C462.517 189.876 460.68 196.267 459.733 202.799C458.044 214.415 459.311 226.625 465.109 237.057C470.907 247.488 481.62 255.905 494.163 257.914C499.007 258.697 503.986 258.538 508.881 258.073C517.73 257.21 526.447 255.442 534.87 252.801C543.669 250.062 552.827 245.845 556.743 238.076C559.015 233.57 559.207 228.433 559.098 223.474C558.796 209.956 556.578 196.533 552.5 183.544C551.317 179.775 549.941 175.975 547.432 172.801C544.923 169.626 541.493 167.299 537.993 165.143C523.024 155.866 503.352 144.987 484.941 152.691Z" fill="#FBBEBE"/>
<path opacity="0.05" d="M484.941 152.691C478.772 155.277 474.1 160.29 470.971 165.832C467.842 171.375 466.082 177.46 464.347 183.503C462.517 189.876 460.68 196.267 459.733 202.799C458.044 214.415 459.311 226.625 465.109 237.057C470.907 247.488 481.62 255.905 494.163 257.914C499.007 258.697 503.986 258.538 508.881 258.073C517.73 257.21 526.447 255.442 534.87 252.801C543.669 250.062 552.827 245.845 556.743 238.076C559.015 233.57 559.207 228.433 559.098 223.474C558.796 209.956 556.578 196.533 552.5 183.544C551.317 179.775 549.941 175.975 547.432 172.801C544.923 169.626 541.493 167.299 537.993 165.143C523.024 155.866 503.352 144.987 484.941 152.691Z" fill="black"/>
<path d="M478.01 226.831C479.796 229.09 481.955 231.078 484.41 232.721C490.502 236.597 498.322 237.121 505.72 237.333C511.659 237.498 518.468 237.186 522.192 232.922C523.869 231.001 524.624 228.551 525.303 226.166C529.489 211.517 532.462 196.598 534.198 181.536L551.144 181.589C558.478 210.492 557.876 240.538 557.236 270.218L556.308 313.5L545.391 312.433C519.466 309.906 493.503 307.38 467.438 306.944C452.166 306.685 436.89 307.149 421.669 308.334L445.443 243.271C448.528 234.812 451.644 226.242 452.368 217.354C453.411 204.46 449.481 190.848 454.927 178.92C455.362 177.96 455.913 176.965 456.905 176.464C457.897 175.964 459.151 176.087 460.29 176.223C462.44 176.488 469.013 176.223 470.574 177.489C472.878 179.327 471.355 179.604 470.542 182.566C469.089 187.868 467.714 192.774 467.733 198.299C467.752 208.33 471.131 218.921 478.01 226.831Z" fill="#22CEF9"/>
<path d="M577.241 379.04C580.095 375.553 582.785 371.942 585.311 368.208C584.031 365.687 582.623 363.225 581.503 360.65C579.788 356.704 578.802 352.522 577.83 348.369C577.497 346.956 577.166 345.542 576.838 344.128C573.254 328.749 569.888 313.152 569.19 297.561C569.126 296.265 569.086 294.969 569.069 293.673C569.069 293.485 569.069 293.302 569.069 293.084C569.069 291.665 569.069 290.245 569.069 288.831C569.146 285.297 569.389 281.734 569.83 278.188C569.913 277.493 570.009 276.798 570.112 276.103C570.112 275.95 570.15 275.802 570.176 275.649L613.692 274.188L617.353 274.065C619.868 273.982 622.53 273.853 624.604 272.539C628.091 270.336 628.501 265.818 628.443 261.937C628.231 252.126 627.023 242.355 624.834 232.751C623.183 225.53 620.828 218.149 615.542 212.601C611.203 208.042 604.919 204.725 602.66 199.053C601.821 196.944 601.61 194.63 600.522 192.615C599.434 190.601 597.636 189.122 595.94 187.567C589.972 182.124 585.02 175.811 581.285 168.884C578.694 164.077 575.884 158.776 572.499 155.454C572.333 155.283 572.166 155.124 571.993 154.971C569.114 152.35 565.818 151.201 561.914 152.986C561.212 153.31 560.544 153.693 559.917 154.129C558.526 155.107 557.254 156.221 556.123 157.451C552.179 161.624 548.72 166.164 545.8 170.998C543.747 174.401 541.984 177.946 540.527 181.6C539.377 184.488 538.426 187.438 537.679 190.436C537.129 192.656 536.694 194.901 536.348 197.151C535.068 205.609 535.068 214.232 535.247 222.796C535.439 230.666 535.817 238.553 536.591 246.393C536.783 248.289 536.997 250.184 537.231 252.077C537.701 255.819 538.281 259.549 538.972 263.268C539.247 264.688 539.529 266.107 539.842 267.521C539.919 267.898 540.002 268.275 540.085 268.646L540.124 268.805C540.969 272.091 541.625 275.415 542.089 278.765C542.14 279.185 542.178 279.603 542.204 280.02C542.311 281.945 542.294 283.875 542.152 285.798C542.005 288.072 541.775 290.339 541.66 292.613C541.66 293.013 541.66 293.408 541.615 293.791C541.583 294.94 541.615 296.088 541.615 297.237C541.745 299.985 542.1 302.72 542.677 305.418C543.757 310.438 545.621 315.287 548.213 319.814C548.456 320.238 548.706 320.656 548.955 321.068C552.2 326.405 556.295 331.3 559.297 336.76C561.886 341.673 563.82 346.857 565.056 352.198C565.483 353.961 565.888 355.728 566.272 357.499C566.867 360.327 567.399 363.177 567.942 366.028C567.994 366.311 568.051 366.617 568.109 366.876C568.832 370.658 569.594 374.422 570.573 378.115C571.142 380.265 571.782 382.385 572.531 384.47L577.241 379.04Z" fill="#464353"/>
<path d="M568.691 332.613C568.691 333.143 568.653 333.673 568.627 334.209C568.513 336.794 568.254 339.371 567.853 341.931C567.322 345.426 566.394 348.859 565.082 352.175C564.212 354.355 563.106 356.448 561.78 358.424C560.603 360.178 559.226 361.811 557.671 363.295C553.831 366.971 548.302 368.143 542.952 369.692C540.491 370.348 538.112 371.242 535.855 372.36C535.452 372.566 535.055 372.79 534.671 373.026L527.978 377.108C525.891 378.374 523.76 379.688 522.327 381.567C522.092 381.886 521.878 382.219 521.687 382.562C520.781 384.292 520.119 386.121 519.716 388.005C516.234 401.352 512.747 414.711 510.36 428.258C510.2 429.153 510.046 430.055 509.88 430.956L509.822 431.239C509.793 431.172 509.759 431.107 509.72 431.044C492.595 440.574 474.836 449.174 456.54 456.06L452.566 425.431C452.152 422.941 452.014 420.419 452.156 417.903C452.534 413.939 454.287 410.181 454.761 406.229C455.209 402.359 454.415 398.454 452.476 394.996C451.721 393.653 450.774 392.334 450.601 390.832C450.428 389.33 451.369 387.957 453.007 387.804C454.287 386.497 454.39 384.712 454.012 382.945C453.812 382.022 453.511 381.121 453.116 380.253C452.028 377.791 450.652 375.111 451.587 372.596C451.834 372.14 451.944 371.632 451.907 371.123C451.913 371.092 451.913 371.06 451.907 371.029C451.689 370.369 450.838 370.081 450.396 369.521C449.565 368.479 450.396 367.059 450.908 365.857C451.406 364.566 451.695 363.215 451.766 361.846C451.836 361.086 451.888 360.321 451.977 359.567C452.102 358.546 452.301 357.535 452.572 356.539C454.127 350.897 457.866 345.97 463.087 342.685C465.576 341.142 468.347 340.017 470.888 338.562C473.49 336.947 475.974 335.177 478.324 333.261C483.96 328.942 489.819 324.87 495.903 321.045C502.445 316.933 509.221 313.146 516.202 309.7C517.696 308.958 519.189 308.236 520.682 307.533C522.308 306.747 523.944 306.003 525.59 305.3C530.864 302.986 536.847 303.851 542.677 305.395C545.122 306.037 547.534 306.802 549.864 307.497C552.139 308.178 554.327 309.083 556.391 310.195C561.556 312.987 565.824 317.11 567.597 322.317C567.6 322.35 567.6 322.384 567.597 322.417C568.723 325.68 568.793 329.179 568.691 332.613Z" fill="#F86D70"/>
<path opacity="0.1" d="M568.691 332.613C568.691 333.143 568.653 333.673 568.627 334.209C568.513 336.794 568.254 339.371 567.853 341.931C567.322 345.426 566.394 348.859 565.082 352.175C564.212 354.355 563.106 356.448 561.78 358.424C560.603 360.178 559.226 361.811 557.671 363.295C553.831 366.971 548.302 368.143 542.952 369.692C540.491 370.348 538.112 371.242 535.855 372.36C535.452 372.566 535.055 372.79 534.671 373.026L527.978 377.108C525.891 378.374 523.76 379.688 522.327 381.567C522.092 381.886 521.878 382.219 521.687 382.562C520.781 384.292 520.119 386.121 519.716 388.005C516.234 401.352 512.747 414.711 510.36 428.258C510.2 429.153 510.046 430.055 509.88 430.956L509.822 431.239C509.793 431.172 509.759 431.107 509.72 431.044C492.595 440.574 474.836 449.174 456.54 456.06L452.566 425.431C452.152 422.941 452.014 420.419 452.156 417.903C452.534 413.939 454.287 410.181 454.761 406.229C455.209 402.359 454.415 398.454 452.476 394.996C451.721 393.653 450.774 392.334 450.601 390.832C450.428 389.33 451.369 387.957 453.007 387.804C454.287 386.497 454.39 384.712 454.012 382.945C453.812 382.022 453.511 381.121 453.116 380.253C452.028 377.791 450.652 375.111 451.587 372.596C451.834 372.14 451.944 371.632 451.907 371.123C451.913 371.092 451.913 371.06 451.907 371.029C451.689 370.369 450.838 370.081 450.396 369.521C449.565 368.479 450.396 367.059 450.908 365.857C451.406 364.566 451.695 363.215 451.766 361.846C451.836 361.086 451.888 360.321 451.977 359.567C452.102 358.546 452.301 357.535 452.572 356.539C454.127 350.897 457.866 345.97 463.087 342.685C465.576 341.142 468.347 340.017 470.888 338.562C473.49 336.947 475.974 335.177 478.324 333.261C483.96 328.942 489.819 324.87 495.903 321.045C502.445 316.933 509.221 313.146 516.202 309.7C517.696 308.958 519.189 308.236 520.682 307.533C522.308 306.747 523.944 306.003 525.59 305.3C530.864 302.986 536.847 303.851 542.677 305.395C545.122 306.037 547.534 306.802 549.864 307.497C552.139 308.178 554.327 309.083 556.391 310.195C561.556 312.987 565.824 317.11 567.597 322.317C567.6 322.35 567.6 322.384 567.597 322.417C568.723 325.68 568.793 329.179 568.691 332.613Z" fill="black"/>
<path d="M507.928 235.048C507.863 234.911 507.769 234.788 507.651 234.685C507.533 234.583 507.394 234.503 507.242 234.452C507.09 234.4 506.928 234.377 506.766 234.384C506.604 234.392 506.446 234.429 506.3 234.494C506.154 234.559 506.024 234.651 505.917 234.763C505.811 234.876 505.73 235.007 505.68 235.149C505.63 235.291 505.612 235.441 505.627 235.59C505.641 235.738 505.688 235.883 505.765 236.014L505.125 236.303L524.208 272.303L527.658 270.754L508.574 234.73L507.928 235.048Z" fill="#3F3D56"/>
<path d="M531.785 197.339C554.405 197.339 572.742 180.461 572.742 159.642C572.742 138.822 554.405 121.945 531.785 121.945C509.165 121.945 490.828 138.822 490.828 159.642C490.828 180.461 509.165 197.339 531.785 197.339Z" fill="#FBBEBE"/>
<path d="M585.842 136.305C585.65 133.308 585.166 130.333 584.395 127.417C581.989 117.892 577.593 108.515 570.022 101.676C569.556 100.004 568.998 98.3551 568.352 96.7346C568.34 96.6945 568.325 96.6551 568.307 96.6168C566.049 90.908 562.784 85.5806 558.644 80.8488C556.244 78.1039 553.134 75.3944 549.307 75.2884C548.232 75.2531 547.093 75.4239 546.107 74.9704C545.383 74.539 544.772 73.9633 544.322 73.2858C542.427 71.0815 539.913 69.3958 537.053 68.4106C534.193 67.4255 531.094 67.1784 528.093 67.696L527.696 67.7725C527.472 67.8138 527.248 67.8609 527.056 67.9139C526.864 67.9669 526.518 68.0553 526.25 68.1318C526.544 68.5795 526.832 69.033 527.114 69.4925C527.873 70.7373 528.577 72.0096 529.225 73.3093C529.763 74.3931 530.26 75.4946 530.717 76.6137C524.163 77.3029 518.826 81.585 513.95 85.661L502.469 95.2503C502.448 95.2664 502.429 95.2842 502.412 95.3033L502.079 95.5978C501.996 95.6744 501.912 95.7509 501.836 95.8334C501.805 95.858 501.777 95.8856 501.752 95.9159C501.656 96.0101 501.567 96.1102 501.477 96.2104C501.317 96.3959 501.174 96.5929 501.048 96.7994C500.986 96.8878 500.93 96.9803 500.882 97.0762C500.865 97.1045 500.85 97.134 500.837 97.1646C500.796 97.2449 500.759 97.3275 500.728 97.412C500.726 97.4236 500.726 97.4357 500.728 97.4473C500.711 97.4956 500.696 97.5448 500.684 97.5946C500.553 98.0091 500.592 98.4532 500.792 98.8433L508.363 98.9199H509.253C509.291 99.8505 509.323 100.787 509.361 101.718C508.16 102.545 507.007 103.43 505.906 104.368C504.705 105.391 503.579 106.485 502.533 107.643C495.705 115.236 492.14 125.043 491.782 134.915C491.782 135.221 491.782 135.504 491.782 135.822C491.782 136.723 491.782 137.624 491.782 138.52C491.782 139.109 491.84 139.698 491.891 140.287C491.894 141.054 492.115 141.807 492.531 142.472C492.585 142.546 492.645 142.617 492.71 142.684C493.094 143.068 493.555 143.38 494.067 143.603L494.617 143.85C494.892 143.974 495.155 144.092 495.411 144.227C497.823 145.482 499.25 147.903 501.445 149.458C501.573 149.546 501.701 149.634 501.829 149.711L502.117 149.888L502.296 149.994L502.54 150.123C502.699 150.212 502.863 150.292 503.032 150.365L503.339 150.506H503.391C503.647 150.612 503.903 150.712 504.165 150.801L504.53 150.918L504.639 150.954C504.741 150.983 504.85 151.019 504.959 151.042C505.176 151.101 505.389 151.154 505.599 151.201L506.238 151.331C506.488 151.372 506.744 151.413 507 151.443L507.378 151.49L507.762 151.525C508.372 151.576 508.986 151.606 509.605 151.614C511.546 151.602 513.485 151.479 515.409 151.242L531.74 149.475C535.446 149.081 539.228 148.686 542.882 149.381C545.979 149.97 548.833 151.325 551.841 152.285C552.52 152.503 553.198 152.703 553.883 152.874C554.132 152.939 554.388 153.009 554.644 153.068L554.996 153.151L555.815 153.333C556.11 153.398 556.404 153.463 556.698 153.516C557.114 153.598 557.524 153.669 557.94 153.74C558.222 153.793 558.51 153.834 558.798 153.881H558.855L559.674 153.999H559.873L560.481 154.076C560.775 154.117 561.069 154.152 561.37 154.182C562.023 154.256 562.676 154.321 563.328 154.376C564.384 154.47 565.447 154.541 566.528 154.6L567.59 154.659L568.653 154.706L571.852 154.835H571.993H572.441C573.771 154.921 575.108 154.857 576.422 154.647C576.652 154.606 576.876 154.559 577.1 154.5C577.324 154.441 577.51 154.382 577.74 154.311C580.14 153.463 581.893 151.513 583.109 149.428C583.365 148.986 583.602 148.545 583.82 148.091C584.037 147.638 584.236 147.178 584.415 146.719C584.639 146.13 584.831 145.57 584.997 144.981C585.048 144.822 585.093 144.663 585.131 144.498C585.17 144.333 585.259 144.009 585.311 143.762C585.471 143.085 585.592 142.401 585.682 141.712C585.682 141.494 585.739 141.27 585.765 141.052C585.823 140.463 585.867 139.916 585.893 139.338C585.893 138.902 585.893 138.461 585.893 138.019C585.887 137.542 585.842 136.912 585.842 136.305ZM569.433 101.14C568.915 100.693 568.384 100.263 567.846 99.8564C568.445 100.204 568.978 100.637 569.427 101.14H569.433Z" fill="#464353"/>
<path d="M453.18 157.568C448.361 157.021 443.581 155.077 438.826 156.031C435.85 156.62 433.291 158.322 430.91 160.072C422.051 166.607 414.518 174.534 408.659 183.485C407.666 184.824 406.968 186.329 406.605 187.915C406.298 189.752 406.842 191.62 407.488 193.381C411.865 205.285 421.228 215.228 425.49 227.167C429.969 239.725 428.414 253.449 425.112 266.313C421.019 282.194 414.366 297.422 405.376 311.491C404.155 313.583 402.626 315.51 400.832 317.216C398.503 319.278 395.374 320.75 393.991 323.448C393.351 324.626 393.166 325.969 392.711 327.229C391.432 330.764 388.334 333.791 388.033 337.52C387.809 340.365 389.275 343.056 390.164 345.766C391.665 350.421 391.505 355.396 389.71 359.961C386.466 368.149 377.98 375.594 380.444 384.011C385.941 382.556 392.033 380.665 394.625 375.971C395.54 374.31 395.994 372.331 397.537 371.117C400.615 368.708 405.856 370.888 409.126 368.673C411.596 366.988 411.686 363.537 410.585 360.886C409.485 358.235 407.59 355.903 406.746 353.176C405.274 348.257 407.629 343.056 407.194 337.973C406.989 335.617 406.202 333.361 406.144 331.017C406.035 326.464 408.774 322.182 412.415 319.089C416.057 315.997 420.556 313.947 424.984 311.927L441.725 304.27C447.798 301.501 454.454 298.126 456.444 292.165C457.199 289.933 457.206 287.553 457.244 285.221C457.813 249.579 467.515 214.656 477.159 180.134C478.657 174.786 480.18 169.414 482.407 164.277C484.634 159.141 488.992 155.018 491.212 150.247C478.33 148.857 466.562 159.112 453.18 157.568Z" fill="#464353"/>
<path d="M545.467 381.166C546.946 389.412 547.848 397.835 548.552 406.217C537.033 415.005 524.631 422.651 512.03 429.742C511.313 430.149 510.59 430.549 509.867 430.92L509.809 431.203C509.781 431.136 509.746 431.071 509.707 431.009C508.729 429.065 507.02 427.512 504.895 426.638C500.172 417.508 495.453 408.379 490.739 399.249C488.179 394.319 485.619 389.342 484.339 384.023C484.339 383.911 484.282 383.793 484.263 383.681C483.29 379.558 483.066 375.276 482.42 371.1C482.092 368.708 481.507 366.352 480.673 364.067C479.905 362.035 478.849 360.061 477.914 358.076C476.762 355.626 475.796 353.146 475.751 350.502C475.751 349.659 475.809 348.735 475.361 348.028C474.882 347.419 474.291 346.893 473.614 346.473C472.769 345.783 472.129 344.908 471.752 343.928C471.376 342.948 471.277 341.896 471.464 340.871C467.624 341.054 465.461 344.853 463.919 348.075C462.517 351.226 460.675 354.196 458.441 356.91C456.812 358.849 454.741 360.435 452.374 361.558C452.163 361.652 451.952 361.746 451.734 361.829C446.39 363.996 440.151 363.23 434.359 362.253C429.297 361.399 424.063 360.338 419.993 357.44L419.557 357.122C418.352 356.201 417.278 355.144 416.358 353.977C412.947 349.689 411.436 344.04 410.598 338.662C410.521 338.156 410.444 337.649 410.374 337.143C409.792 333.343 409.631 329.498 409.894 325.669C409.971 324.726 410.08 323.784 410.214 322.847C410.304 322.258 410.4 321.622 410.508 321.009C410.505 320.992 410.505 320.974 410.508 320.956C410.675 319.985 410.854 319.007 411.033 318.011C411.673 314.672 412.313 311.244 414.233 308.369C415.496 306.581 417.09 305.01 418.943 303.728C419.634 303.227 420.344 302.75 421.061 302.29C422.226 301.548 423.423 300.841 424.639 300.176C427.698 298.491 430.909 297.052 434.238 295.876C435.031 295.593 435.838 295.328 436.644 295.075C439.778 294.049 443.152 293.803 446.422 294.362C449.321 294.748 452.25 294.906 455.177 294.833C462.684 294.698 470.222 293.379 477.716 292.525C488.122 291.346 499.301 291.205 508.376 296.059C508.811 296.288 509.234 296.53 509.656 296.783C514.136 299.481 517.745 303.262 520.657 307.486C521.297 308.375 521.853 309.288 522.404 310.213C523.672 312.336 524.819 314.518 525.84 316.751C526.444 317.847 526.77 319.056 526.794 320.285C526.779 320.519 526.745 320.751 526.691 320.98C526.519 321.816 526.173 322.629 526.051 323.477C525.648 326.688 528.611 329.368 529.718 332.425C530.435 334.416 530.358 336.548 530.761 338.645C531.344 341.59 532.912 344.24 534.32 346.891C536.544 351.158 538.447 355.56 540.015 360.067C541.129 363.207 542.082 366.393 542.92 369.609C543.193 370.642 543.452 371.677 543.695 372.714C544.392 375.564 544.962 378.356 545.467 381.166Z" fill="#F86D70"/>
<path d="M613.699 293.938V298.061L612.873 298.05L611.952 298.038L601.661 297.92L576.307 297.614L569.19 297.531L567.347 297.508L556.666 297.384L541.615 297.201L509.681 296.819L454.268 296.159L434.27 295.923L426.245 295.829L418.86 295.741L414.259 295.682L409.9 295.629L377.589 295.246L368.63 295.14L366.678 295.116L365.411 292.106L356.202 270.248L354.519 266.254L355.799 261.542L361.559 265.076L365.104 265.483L423.474 272.162L434.43 273.417L457.66 276.079L480.417 278.683L489.337 279.702L542.127 285.745L556.878 287.435L569.088 288.831L612.502 293.803L613.699 293.938Z" fill="#3F3D56"/>
<path d="M355.799 261.542L367.318 289.226L613.699 293.938V263.898L355.799 261.542Z" fill="#504F60"/>
<path d="M368.598 292.171L370.518 461.22L379.477 460.042L377.557 292.171H368.598Z" fill="#3F3D56"/>
<path d="M612.873 298.044H611.952C610.46 308.583 607.991 318.986 604.573 329.138L601.661 297.92L601.54 296.589L612.304 295.446L612.662 295.411L612.873 298.044Z" fill="#3F3D56"/>
<path d="M577.862 278.035L484.109 279.802L454.991 270.966L533.065 266.843L577.862 278.035Z" fill="white"/>
<path d="M460.258 243.683C459.264 244.034 458.383 244.612 457.698 245.362C457.163 246.174 456.836 247.089 456.745 248.036L455.171 256.677C454.93 257.467 454.973 258.308 455.292 259.074C455.702 259.799 456.892 260.176 457.487 259.575C457.41 261.265 457.57 263.068 458.639 264.446C459.708 265.824 461.948 266.549 463.458 265.589C463.695 265.944 464.013 266.247 464.39 266.478C464.767 266.709 465.193 266.862 465.641 266.926C466.088 266.99 466.546 266.963 466.981 266.848C467.416 266.733 467.819 266.533 468.161 266.26C467.253 266.543 467.189 267.821 467.835 268.469C468.559 269.057 469.481 269.396 470.446 269.429C481.692 270.888 493.157 269.56 503.659 265.583C504.651 265.206 502.04 253.95 501.778 252.795C501.138 250.08 500.818 246.764 498.329 244.938C492.377 240.567 481.805 239.707 474.555 240.226C469.601 240.57 464.756 241.742 460.258 243.683Z" fill="#FBBEBE"/>
<path opacity="0.1" d="M555.649 244.991C532.502 245.397 508.875 245.745 486.784 239.366C488.894 246.892 488.748 254.804 486.362 262.261L594.59 270.507C599.178 270.855 618.204 272.834 622.677 271.838C627.151 270.843 585.144 258.108 586.84 254.168C591.505 243.312 607.133 236.951 595.876 236.544C581.669 236.026 569.965 244.743 555.649 244.991Z" fill="black"/>
<path d="M556.289 246.169C533.142 246.575 509.515 246.923 487.424 240.544C489.534 248.07 489.388 255.983 487.002 263.439L595.23 271.685C599.818 272.033 618.844 274.041 623.317 273.016C627.791 271.991 626.741 266.943 628.437 263.003C633.102 252.147 607.773 238.129 596.516 237.722C582.309 237.204 570.605 245.921 556.289 246.169Z" fill="#464353"/>
<path d="M519.485 247.806C520.48 248.156 521.361 248.734 522.045 249.485C522.58 250.298 522.908 251.212 523.005 252.159L524.579 260.8C524.816 261.591 524.774 262.43 524.458 263.197C524.048 263.922 522.852 264.299 522.263 263.698C522.333 265.388 522.18 267.191 521.111 268.569C520.042 269.947 517.802 270.672 516.286 269.712C516.049 270.067 515.731 270.371 515.354 270.601C514.977 270.832 514.55 270.985 514.103 271.049C513.655 271.113 513.198 271.086 512.763 270.971C512.327 270.856 511.925 270.656 511.582 270.383C512.491 270.666 512.561 271.944 511.915 272.592C511.189 273.18 510.264 273.519 509.297 273.552C498.054 275.011 486.591 273.684 476.09 269.706C475.099 269.329 477.703 258.073 477.972 256.918C478.612 254.203 478.932 250.887 481.421 249.061C487.366 244.69 497.945 243.83 505.195 244.349C510.147 244.694 514.989 245.866 519.485 247.806Z" fill="#FBBEBE"/>
<path d="M366.538 229.046C364.413 231.567 362.282 234.141 360.912 237.08C358.295 242.688 358.679 249.037 359.114 255.128C359.236 256.895 359.389 258.697 360.394 260.164C361.263 261.272 362.408 262.171 363.735 262.785C369.276 265.683 375.766 266.549 382.101 267.197C391.803 268.186 401.539 268.789 411.308 269.005C435.511 269.547 460.085 267.727 483.661 272.775C480.743 268.693 480.749 263.292 482.381 258.638C484.013 253.985 487.155 249.933 490.233 245.945C479.444 242.8 467.874 247.712 456.572 247.223C444.97 246.722 434.231 240.549 422.616 240.555C420.121 240.555 417.58 240.844 415.155 240.29C412.729 239.737 410.38 238.052 410.156 235.761C413.254 236.403 416.191 233.964 417.471 231.29C418.751 228.616 418.981 225.594 420.223 222.902C423.314 216.205 431.665 213.101 436.862 207.588C437.681 206.716 438.455 205.685 438.429 204.531C438.307 203.553 437.86 202.634 437.15 201.898C432.83 196.597 426.322 193.652 420.914 189.529C419.033 188.091 415.238 182.672 413.126 182.172C409.209 181.247 405.888 186.454 403.341 188.993C390.482 201.853 378.214 215.204 366.538 229.046Z" fill="#464353"/>
<path opacity="0.07" d="M495.219 227.55C496.841 228.657 498.282 229.972 499.5 231.455C500.107 232.2 500.539 233.052 500.769 233.959C500.999 234.865 501.022 235.806 500.837 236.721C500.639 235.014 501.052 233.294 502.015 231.823C502.977 230.352 504.436 229.211 506.168 228.575L495.219 227.55Z" fill="black"/>
<g opacity="0.1">
<path opacity="0.1" d="M530.71 73.0855C529.957 71.2445 529.09 69.445 528.112 67.696C527.48 67.8078 526.856 67.9553 526.243 68.1377C527.341 69.8163 528.331 71.553 529.206 73.3388C529.699 73.221 530.198 73.1385 530.71 73.0855Z" fill="black"/>
<path opacity="0.1" d="M567.84 96.3105C568.013 96.4401 568.179 96.5873 568.346 96.7228C568.333 96.6846 568.318 96.6472 568.301 96.6109C568.156 96.5127 568.002 96.4126 567.84 96.3105Z" fill="black"/>
<path opacity="0.1" d="M508.35 98.9022C508.683 98.6607 508.99 98.4074 509.349 98.1718L509.246 95.374L502.412 95.3092C501.305 96.2457 500.127 97.5887 500.78 98.8433L508.35 98.9022Z" fill="black"/>
<path opacity="0.1" d="M583.071 146C581.855 148.085 580.101 150.041 577.702 150.883C575.852 151.531 573.817 151.472 571.84 151.39C565.095 151.136 558.234 150.86 551.86 148.804C548.878 147.838 546.024 146.489 542.901 145.894C539.247 145.199 535.465 145.594 531.76 145.994L515.428 147.761C510.609 148.28 505.24 148.668 501.394 145.947C499.193 144.392 497.772 141.971 495.359 140.723C494.342 140.192 493.132 139.851 492.473 138.955C492.057 138.291 491.836 137.537 491.833 136.77C491.782 136.152 491.75 135.533 491.724 134.915C491.655 136.712 491.691 138.511 491.833 140.304C491.836 141.072 492.057 141.825 492.473 142.49C493.113 143.379 494.342 143.721 495.359 144.257C497.772 145.505 499.199 147.926 501.394 149.481C505.234 152.203 510.609 151.837 515.428 151.295L531.76 149.528C535.465 149.128 539.247 148.733 542.901 149.428C545.999 150.017 548.853 151.372 551.86 152.338C558.26 154.394 565.095 154.694 571.84 154.924C573.817 155 575.852 155.065 577.702 154.417C580.101 153.575 581.855 151.619 583.071 149.534C585.426 145.499 586.085 140.923 585.835 136.311C585.698 139.688 584.754 142.996 583.071 146Z" fill="black"/>
</g>
<path opacity="0.1" d="M530.525 76.8729L539.484 84.5301C539.484 84.5301 531.804 81.585 530.525 76.8729Z" fill="black"/>
</g>
<defs>
<clipPath id="clip0">
<rect width="629" height="473" fill="white"/>
</clipPath>
</defs>
</svg>
